<svg width="135" height="17" viewBox="0 0 135 17" fill="none" xmlns="http://www.w3.org/2000/svg">
<path d="M2.61816 13H0.957031V5.60352H2.61816V13ZM0.854492 3.68262C0.854492 3.42741 0.934245 3.21549 1.09375 3.04688C1.25781 2.87826 1.49023 2.79395 1.79102 2.79395C2.0918 2.79395 2.32422 2.87826 2.48828 3.04688C2.65234 3.21549 2.73438 3.42741 2.73438 3.68262C2.73438 3.93327 2.65234 4.1429 2.48828 4.31152C2.32422 4.47559 2.0918 4.55762 1.79102 4.55762C1.49023 4.55762 1.25781 4.47559 1.09375 4.31152C0.934245 4.1429 0.854492 3.93327 0.854492 3.68262ZM6.25461 5.60352L6.30246 6.45801C6.84934 5.7972 7.56711 5.4668 8.45578 5.4668C9.99615 5.4668 10.78 6.34863 10.8073 8.1123V13H9.14621V8.20801C9.14621 7.73861 9.04367 7.39225 8.83859 7.16895C8.63807 6.94108 8.30767 6.82715 7.84738 6.82715C7.17746 6.82715 6.67844 7.13021 6.35031 7.73633V13H4.68918V5.60352H6.25461ZM13.3705 13V6.83398H12.2426V5.60352H13.3705V4.92676C13.3705 4.10645 13.5984 3.47298 14.0541 3.02637C14.5099 2.57975 15.1479 2.35645 15.9682 2.35645C16.2599 2.35645 16.5698 2.39746 16.8979 2.47949L16.8569 3.77832C16.6746 3.74186 16.4627 3.72363 16.2211 3.72363C15.4282 3.72363 15.0317 4.13151 15.0317 4.94727V5.60352H16.5356V6.83398H15.0317V13H13.3705ZM17.7179 9.2334C17.7179 8.50879 17.8615 7.8571 18.1486 7.27832C18.4357 6.69499 18.839 6.24837 19.3586 5.93848C19.8781 5.62402 20.4751 5.4668 21.1496 5.4668C22.1476 5.4668 22.9565 5.78809 23.5763 6.43066C24.2007 7.07324 24.5379 7.92546 24.588 8.9873L24.5949 9.37695C24.5949 10.1061 24.4536 10.7578 24.1711 11.332C23.8931 11.9062 23.492 12.3506 22.9679 12.665C22.4484 12.9795 21.8468 13.1367 21.1632 13.1367C20.1196 13.1367 19.2834 12.7904 18.6545 12.0977C18.0301 11.4004 17.7179 10.473 17.7179 9.31543V9.2334ZM19.3791 9.37695C19.3791 10.138 19.5363 10.735 19.8507 11.168C20.1652 11.5964 20.6027 11.8105 21.1632 11.8105C21.7238 11.8105 22.159 11.5918 22.4689 11.1543C22.7834 10.7168 22.9406 10.0765 22.9406 9.2334C22.9406 8.486 22.7788 7.89355 22.4552 7.45605C22.1362 7.01855 21.701 6.7998 21.1496 6.7998C20.6073 6.7998 20.1766 7.01628 19.8576 7.44922C19.5386 7.8776 19.3791 8.52018 19.3791 9.37695ZM37.33 9.45898C37.2753 10.5983 36.995 11.4984 36.4891 12.1592C35.9833 12.8154 35.2974 13.1436 34.4315 13.1436C33.6067 13.1436 33.0552 12.7926 32.7772 12.0908C32.5448 12.4372 32.2736 12.6969 31.9638 12.8701C31.6584 13.0433 31.3371 13.1299 30.9999 13.1299C30.3345 13.1299 29.8287 12.8564 29.4823 12.3096C29.1405 11.7627 29.0106 11.0312 29.0927 10.1152C29.1656 9.3724 29.3456 8.70247 29.6327 8.10547C29.9244 7.50846 30.2912 7.04818 30.7333 6.72461C31.1799 6.39648 31.6539 6.23242 32.1552 6.23242C32.538 6.23242 32.8752 6.28027 33.1669 6.37598C33.4631 6.47168 33.8095 6.66992 34.2059 6.9707L33.8505 10.8193C33.7639 11.7217 34.0236 12.1729 34.6298 12.1729C35.0946 12.1729 35.4751 11.9245 35.7714 11.4277C36.0721 10.9264 36.2362 10.2793 36.2636 9.48633C36.341 7.80469 36.0152 6.51725 35.286 5.62402C34.5614 4.73079 33.4699 4.28418 32.0116 4.28418C31.1184 4.28418 30.3254 4.50749 29.6327 4.9541C28.9445 5.40072 28.3977 6.04785 27.9921 6.89551C27.5865 7.73861 27.3632 8.7002 27.3221 9.78027C27.2675 10.8786 27.3973 11.8265 27.7118 12.624C28.0308 13.417 28.5162 14.0208 29.1679 14.4355C29.8241 14.8503 30.6239 15.0576 31.5673 15.0576C31.9501 15.0576 32.3488 15.012 32.7636 14.9209C33.1828 14.8298 33.5383 14.7067 33.83 14.5518L34.0897 15.4883C33.8117 15.6706 33.4358 15.8164 32.9618 15.9258C32.4924 16.0397 32.0184 16.0967 31.5399 16.0967C30.3824 16.0967 29.3889 15.8506 28.5595 15.3584C27.73 14.8708 27.108 14.1621 26.6932 13.2324C26.2649 12.2708 26.0757 11.1201 26.1259 9.78027C26.1805 8.53158 26.4608 7.41048 26.9667 6.41699C27.4725 5.41895 28.163 4.64421 29.038 4.09277C29.9175 3.54134 30.9179 3.26562 32.0389 3.26562C33.1737 3.26562 34.149 3.51628 34.9647 4.01758C35.785 4.51432 36.398 5.2321 36.8036 6.1709C37.2092 7.10514 37.3846 8.20117 37.33 9.45898ZM30.4325 10.1152C30.3733 10.735 30.4279 11.2067 30.5966 11.5303C30.7652 11.8493 31.0341 12.0088 31.4032 12.0088C31.6493 12.0088 31.8817 11.9017 32.1005 11.6875C32.3192 11.4688 32.497 11.1702 32.6337 10.792L32.9413 7.42188C32.7134 7.33529 32.4924 7.29199 32.2782 7.29199C31.7723 7.29199 31.3599 7.53125 31.0409 8.00977C30.7219 8.48372 30.5191 9.18555 30.4325 10.1152ZM38.7721 9.24707C38.7721 8.10775 39.0364 7.19401 39.565 6.50586C40.0937 5.81315 40.8023 5.4668 41.691 5.4668C42.4749 5.4668 43.1083 5.74023 43.5914 6.28711V2.5H45.2525V13H43.7486L43.6666 12.2344C43.1699 12.8359 42.5068 13.1367 41.6773 13.1367C40.8115 13.1367 40.1096 12.7881 39.5719 12.0908C39.0387 11.3936 38.7721 10.4456 38.7721 9.24707ZM40.4332 9.39062C40.4332 10.1426 40.5768 10.7305 40.8639 11.1543C41.1555 11.5736 41.568 11.7832 42.1012 11.7832C42.7802 11.7832 43.277 11.4801 43.5914 10.874V7.71582C43.2861 7.12337 42.7939 6.82715 42.1148 6.82715C41.5771 6.82715 41.1624 7.04134 40.8707 7.46973C40.579 7.89355 40.4332 8.53385 40.4332 9.39062ZM50.5228 13.1367C49.47 13.1367 48.6155 12.8063 47.9593 12.1455C47.3076 11.4801 46.9818 10.596 46.9818 9.49316V9.28809C46.9818 8.5498 47.123 7.89128 47.4056 7.3125C47.6927 6.72917 48.0937 6.27572 48.6087 5.95215C49.1237 5.62858 49.6979 5.4668 50.3314 5.4668C51.3385 5.4668 52.1155 5.78809 52.6624 6.43066C53.2139 7.07324 53.4896 7.98242 53.4896 9.1582V9.82812H48.6566C48.7067 10.4388 48.9095 10.9219 49.265 11.2773C49.625 11.6328 50.0762 11.8105 50.6185 11.8105C51.3795 11.8105 51.9993 11.5029 52.4779 10.8877L53.3734 11.7422C53.0771 12.1842 52.6807 12.5283 52.1839 12.7744C51.6917 13.016 51.138 13.1367 50.5228 13.1367ZM50.3245 6.7998C49.8688 6.7998 49.4997 6.95931 49.2171 7.27832C48.9391 7.59733 48.7614 8.04167 48.6839 8.61133H51.8489V8.48828C51.8125 7.93229 51.6644 7.51302 51.4046 7.23047C51.1448 6.94336 50.7848 6.7998 50.3245 6.7998ZM57.5772 10.8945L59.1426 5.60352H60.8584L58.295 13H56.8526L54.2686 5.60352H55.9912L57.5772 10.8945ZM66.3269 10.9902C66.3269 10.694 66.2039 10.4684 65.9578 10.3135C65.7162 10.1585 65.3129 10.0218 64.7478 9.90332C64.1827 9.78483 63.711 9.63444 63.3328 9.45215C62.5033 9.05111 62.0886 8.47005 62.0886 7.70898C62.0886 7.07096 62.3575 6.53776 62.8953 6.10938C63.433 5.68099 64.1166 5.4668 64.9461 5.4668C65.8302 5.4668 66.5434 5.68555 67.0857 6.12305C67.6326 6.56055 67.906 7.12793 67.906 7.8252H66.2449C66.2449 7.50618 66.1264 7.24186 65.8894 7.03223C65.6524 6.81803 65.338 6.71094 64.9461 6.71094C64.5815 6.71094 64.283 6.79525 64.0505 6.96387C63.8227 7.13249 63.7088 7.35807 63.7088 7.64062C63.7088 7.89583 63.8158 8.09408 64.03 8.23535C64.2442 8.37663 64.6772 8.52018 65.3289 8.66602C65.9806 8.80729 66.491 8.97819 66.8601 9.17871C67.2338 9.37467 67.5095 9.61165 67.6873 9.88965C67.8696 10.1676 67.9607 10.5049 67.9607 10.9014C67.9607 11.5667 67.685 12.1068 67.1336 12.5215C66.5821 12.9316 65.8598 13.1367 64.9666 13.1367C64.3604 13.1367 63.8204 13.0273 63.3464 12.8086C62.8725 12.5898 62.5033 12.2891 62.239 11.9062C61.9747 11.5234 61.8425 11.111 61.8425 10.6689H63.4558C63.4786 11.0609 63.6267 11.3639 63.9002 11.5781C64.1736 11.7878 64.5359 11.8926 64.9871 11.8926C65.4246 11.8926 65.7573 11.8105 65.9851 11.6465C66.213 11.4779 66.3269 11.2591 66.3269 10.9902ZM71.7749 3.80566V5.60352H73.0805V6.83398H71.7749V10.9629C71.7749 11.2454 71.8296 11.4505 71.9389 11.5781C72.0529 11.7012 72.2534 11.7627 72.5405 11.7627C72.7319 11.7627 72.9256 11.7399 73.1216 11.6943V12.9795C72.7433 13.0843 72.3787 13.1367 72.0278 13.1367C70.7518 13.1367 70.1137 12.4326 70.1137 11.0244V6.83398H68.8969V5.60352H70.1137V3.80566H71.7749ZM79.1164 12.2754C78.6288 12.8496 77.9361 13.1367 77.0383 13.1367C76.2362 13.1367 75.6278 12.902 75.2131 12.4326C74.8029 11.9632 74.5979 11.2842 74.5979 10.3955V5.60352H76.259V10.375C76.259 11.3138 76.6486 11.7832 77.4279 11.7832C78.2346 11.7832 78.7792 11.4938 79.0617 10.915V5.60352H80.7229V13H79.1574L79.1164 12.2754ZM82.3837 9.24707C82.3837 8.10775 82.648 7.19401 83.1767 6.50586C83.7053 5.81315 84.414 5.4668 85.3027 5.4668C86.0865 5.4668 86.72 5.74023 87.203 6.28711V2.5H88.8642V13H87.3603L87.2782 12.2344C86.7815 12.8359 86.1184 13.1367 85.289 13.1367C84.4231 13.1367 83.7213 12.7881 83.1835 12.0908C82.6503 11.3936 82.3837 10.4456 82.3837 9.24707ZM84.0448 9.39062C84.0448 10.1426 84.1884 10.7305 84.4755 11.1543C84.7672 11.5736 85.1796 11.7832 85.7128 11.7832C86.3919 11.7832 86.8886 11.4801 87.203 10.874V7.71582C86.8977 7.12337 86.4055 6.82715 85.7265 6.82715C85.1887 6.82715 84.774 7.04134 84.4823 7.46973C84.1907 7.89355 84.0448 8.53385 84.0448 9.39062ZM92.6442 13H90.983V5.60352H92.6442V13ZM90.8805 3.68262C90.8805 3.42741 90.9603 3.21549 91.1198 3.04688C91.2838 2.87826 91.5163 2.79395 91.817 2.79395C92.1178 2.79395 92.3502 2.87826 92.5143 3.04688C92.6784 3.21549 92.7604 3.42741 92.7604 3.68262C92.7604 3.93327 92.6784 4.1429 92.5143 4.31152C92.3502 4.47559 92.1178 4.55762 91.817 4.55762C91.5163 4.55762 91.2838 4.47559 91.1198 4.31152C90.9603 4.1429 90.8805 3.93327 90.8805 3.68262ZM94.4281 9.2334C94.4281 8.50879 94.5716 7.8571 94.8587 7.27832C95.1459 6.69499 95.5492 6.24837 96.0687 5.93848C96.5882 5.62402 97.1852 5.4668 97.8597 5.4668C98.8578 5.4668 99.6667 5.78809 100.286 6.43066C100.911 7.07324 101.248 7.92546 101.298 8.9873L101.305 9.37695C101.305 10.1061 101.164 10.7578 100.881 11.332C100.603 11.9062 100.202 12.3506 99.6781 12.665C99.1586 12.9795 98.557 13.1367 97.8734 13.1367C96.8298 13.1367 95.9935 12.7904 95.3646 12.0977C94.7403 11.4004 94.4281 10.473 94.4281 9.31543V9.2334ZM96.0892 9.37695C96.0892 10.138 96.2464 10.735 96.5609 11.168C96.8754 11.5964 97.3129 11.8105 97.8734 11.8105C98.4339 11.8105 98.8692 11.5918 99.1791 11.1543C99.4935 10.7168 99.6507 10.0765 99.6507 9.2334C99.6507 8.486 99.489 7.89355 99.1654 7.45605C98.8464 7.01855 98.4112 6.7998 97.8597 6.7998C97.3174 6.7998 96.8867 7.01628 96.5677 7.44922C96.2487 7.8776 96.0892 8.52018 96.0892 9.37695ZM104.025 11.25C104.335 11.25 104.575 11.3389 104.743 11.5166C104.912 11.6898 104.996 11.9085 104.996 12.1729C104.996 12.4326 104.912 12.6491 104.743 12.8223C104.575 12.9909 104.335 13.0752 104.025 13.0752C103.729 13.0752 103.495 12.9909 103.321 12.8223C103.148 12.6536 103.062 12.4372 103.062 12.1729C103.062 11.9085 103.146 11.6898 103.315 11.5166C103.483 11.3389 103.72 11.25 104.025 11.25ZM110.219 11.8105C110.633 11.8105 110.977 11.6898 111.251 11.4482C111.524 11.2067 111.67 10.9082 111.688 10.5527H113.254C113.235 11.013 113.092 11.4437 112.823 11.8447C112.554 12.2412 112.19 12.5557 111.729 12.7881C111.269 13.0205 110.772 13.1367 110.239 13.1367C109.205 13.1367 108.384 12.8018 107.778 12.1318C107.172 11.4619 106.869 10.5368 106.869 9.35645V9.18555C106.869 8.0599 107.17 7.15983 107.771 6.48535C108.373 5.80632 109.193 5.4668 110.232 5.4668C111.112 5.4668 111.827 5.72428 112.379 6.23926C112.935 6.74967 113.226 7.42188 113.254 8.25586H111.688C111.67 7.83203 111.524 7.4834 111.251 7.20996C110.982 6.93652 110.638 6.7998 110.219 6.7998C109.681 6.7998 109.266 6.99577 108.974 7.3877C108.683 7.77507 108.535 8.36523 108.53 9.1582V9.4248C108.53 10.2269 108.674 10.8262 108.961 11.2227C109.252 11.6146 109.672 11.8105 110.219 11.8105ZM114.477 9.2334C114.477 8.50879 114.621 7.8571 114.908 7.27832C115.195 6.69499 115.598 6.24837 116.118 5.93848C116.637 5.62402 117.234 5.4668 117.909 5.4668C118.907 5.4668 119.716 5.78809 120.335 6.43066C120.96 7.07324 121.297 7.92546 121.347 8.9873L121.354 9.37695C121.354 10.1061 121.213 10.7578 120.93 11.332C120.652 11.9062 120.251 12.3506 119.727 12.665C119.208 12.9795 118.606 13.1367 117.922 13.1367C116.879 13.1367 116.043 12.7904 115.414 12.0977C114.789 11.4004 114.477 10.473 114.477 9.31543V9.2334ZM116.138 9.37695C116.138 10.138 116.295 10.735 116.61 11.168C116.924 11.5964 117.362 11.8105 117.922 11.8105C118.483 11.8105 118.918 11.5918 119.228 11.1543C119.543 10.7168 119.7 10.0765 119.7 9.2334C119.7 8.486 119.538 7.89355 119.214 7.45605C118.895 7.01855 118.46 6.7998 117.909 6.7998C117.366 6.7998 116.936 7.01628 116.617 7.44922C116.298 7.8776 116.138 8.52018 116.138 9.37695ZM124.601 5.60352L124.649 6.37598C125.168 5.76986 125.879 5.4668 126.781 5.4668C127.77 5.4668 128.447 5.84505 128.812 6.60156C129.35 5.84505 130.106 5.4668 131.081 5.4668C131.897 5.4668 132.503 5.69238 132.9 6.14355C133.301 6.59473 133.506 7.26009 133.515 8.13965V13H131.854V8.1875C131.854 7.7181 131.751 7.37402 131.546 7.15527C131.341 6.93652 131.002 6.82715 130.528 6.82715C130.149 6.82715 129.839 6.92969 129.598 7.13477C129.361 7.33529 129.195 7.59961 129.099 7.92773L129.106 13H127.445V8.13281C127.422 7.26237 126.977 6.82715 126.112 6.82715C125.446 6.82715 124.975 7.09831 124.697 7.64062V13H123.035V5.60352H124.601Z" fill="#2196F3"/>
</svg>
